<mxfile host="app.diagrams.net" modified="2024-02-24T07:01:38.685Z" agent="Mozilla/5.0 (X11; Linux x86_64) AppleWebKit/537.36 (KHTML, like Gecko) Chrome/122.0.0.0 Safari/537.36" version="23.1.6" etag="kbYxAeK3nQ_1s7oj7MuC" type="github">
  <diagram name="Page-1" id="MgWxYzpVrM-ld2LVBros">
    <mxGraphModel>
      <root>
        <mxCell id="0" />
        <mxCell id="1" parent="0" />
      </root>
    </mxGraphModel>
  </diagram>
</mxfile>
